<?xml version="1.0" standalone="no"?><!-- Generator: Gravit.io --><svg xmlns="http://www.w3.org/2000/svg" xmlns:xlink="http://www.w3.org/1999/xlink" style="isolation:isolate" viewBox="778 380.112 515.441 432.888"><defs><clipPath id="_clipPath_gCcmYWeKUueFytlEPaq4hk6UEUu5Bff5"><rect x="778" y="380.112" width="515.441" height="432.888"/></clipPath></defs><g clip-path="url(#_clipPath_gCcmYWeKUueFytlEPaq4hk6UEUu5Bff5)"><g style="isolation:isolate"><g style="isolation:isolate"><path d=" M 1164.37 727.779 C 1163.217 776.035 1141.445 792.844 1084.105 813 C 1091.03 797.25 1078.563 781.592 1044.146 773.335 C 1106.325 751.487 1106.584 751.093 1164.37 727.779 Z " fill="rgb(2,12,31)"/><path d=" M 1020.913 772.492 C 993.261 807.318 967.923 807.579 914.584 790.543 C 928.422 782.814 927.957 764.38 907.248 739.195 C 965.083 757.675 965.492 757.529 1020.913 772.492 Z " fill="rgb(2,12,31)"/><path d=" M 894.301 731.517 C 855.456 743.558 836.185 730.687 804.688 690.311 C 819.125 691.611 828.281 677.45 825.63 647.748 C 859.778 691.533 860.162 691.634 894.301 731.517 Z " fill="rgb(2,12,31)"/><path d=" M 821.763 636.107 C 786.858 624.238 779.584 604.529 778 558.134 C 787.895 566.781 802.156 561.274 816.04 538.078 C 817.751 588.387 817.979 588.665 821.763 636.107 Z " fill="rgb(2,12,31)"/><path d=" M 818.467 529.058 C 799.037 502.302 803.906 484.099 826.751 449.291 C 829.527 460.745 842.824 464.09 864.997 454.281 C 840.219 492.022 840.243 492.344 818.467 529.058 Z " fill="rgb(2,12,31)"/><path d=" M 870.074 449.671 C 867.304 420.536 879.205 408.854 912.279 392.604 C 909.24 402.582 917.87 411.114 939.182 413.615 C 903.317 431.231 903.19 431.487 870.074 449.671 Z " fill="rgb(2,12,31)"/><path d=" M 943.275 411.907 C 950.762 387.567 964.222 382.146 996.222 380.112 C 990.453 387.119 994.544 396.854 1010.84 405.969 C 976.141 408.17 975.953 408.333 943.275 411.907 Z " fill="rgb(2,12,31)"/><path d=" M 1013.763 406.477 C 1026.753 389.138 1039.089 388.665 1065.297 396.232 C 1058.664 400.185 1059.143 409.155 1069.572 421.137 C 1041.154 412.928 1040.957 413.005 1013.763 406.477 Z " fill="rgb(2,12,31)"/><path d=" M 1071.611 422.108 C 1086.289 411.926 1096.064 414.768 1114.597 427.514 C 1108.378 428.879 1106.416 436.022 1111.455 448.112 C 1091.36 434.289 1091.186 434.298 1071.611 422.108 Z " fill="rgb(2,12,31)"/><path d=" M 1113.545 449.369 C 1126.811 444.702 1133.638 448.899 1145.047 462.441 C 1140.041 462.18 1137.062 467.192 1138.365 477.421 C 1125.995 462.736 1125.861 462.706 1113.545 449.369 Z " fill="rgb(2,12,31)"/><path d=" M 1138.365 478.449 C 1148.517 476.954 1152.823 480.911 1159.109 492.2 C 1155.56 491.316 1152.728 494.492 1152.236 502 C 1145.421 489.758 1145.329 489.718 1138.365 478.449 Z " fill="rgb(2,12,31)"/><path d=" M 1152.805 503.002 C 1159.266 502.914 1161.623 505.742 1164.607 513.311 C 1162.465 512.464 1160.433 514.21 1159.501 518.855 C 1156.267 510.647 1156.213 510.615 1152.805 503.002 Z " fill="rgb(2,12,31)"/><path d=" M 1160.02 520 C 1162.678 520.129 1163.574 521.352 1164.607 524.539 C 1163.748 524.136 1162.868 524.801 1162.367 526.687 C 1161.248 523.231 1161.226 523.216 1160.02 520 Z " fill="rgb(2,12,31)"/></g><g style="isolation:isolate"><path d=" M 1145 644 C 1156.333 606.667 1158.343 575.677 1151 559 C 1160.948 561.006 1166.625 566.016 1168 574 C 1173.038 568.742 1176.048 559.752 1177 547 C 1184.643 548.024 1184.169 560.451 1178.677 584.262 C 1174.695 601.526 1168.076 624.774 1160 654 L 1145 644 Z " fill="rgb(255,89,89)"/><g style="isolation:isolate"><path d=" M 1210.763 702.26 L 1226.28 670.903 C 1256.431 684.054 1279.588 659.994 1293.047 643.478 C 1297.657 661.76 1261.271 697.231 1210.763 702.26 Z " fill="rgb(2,12,31)"/><path d=" M 1180.763 723.509 L 1210.763 705.509 C 1229.028 732.866 1261.513 725.134 1281.763 718.509 C 1275.763 736.384 1225.98 746.57 1180.763 723.509 Z " fill="rgb(2,12,31)"/></g></g><path d=" M 1124.881 752.462 C 1002.685 812.368 820.227 742.651 811 581.323 C 810.01 374.25 1120.5 332.25 1168 547 C 1025.017 359.614 859.967 454.064 879 581.323 C 881.774 636.73 989.053 747.979 1098.286 630.448 C 1106.369 614.974 1115.34 593.072 1115 570 C 1109.066 532.878 1116.41 520.555 1133 533 C 1138.333 535.667 1130.333 602 1153 644 C 1198.667 637.333 1180 532.667 1192 529 C 1245.709 506.015 1259.406 517.712 1249 564 C 1243.875 580.875 1222.059 634.446 1224 644 C 1236.99 687.132 1217.531 717.188 1168 726 L 1124.881 752.462 Z " fill="rgb(13,34,72)"/><ellipse vector-effect="non-scaling-stroke" cx="1228.5" cy="536.0000000000001" rx="12.5" ry="7" fill="rgb(238,238,238)"/><path d=" M 1161 672.82 C 1161 660.561 1172.426 650.608 1186.5 650.608 C 1200.574 650.608 1212 660.561 1212 672.82 C 1212 685.079 1200.574 695.032 1186.5 695.032 C 1172.426 695.032 1161 685.079 1161 672.82 Z " fill="rgb(238,238,238)"/><path d=" M 1168 547 C 1026.333 365 863.25 449 879 581.323 C 889.5 654.5 1000.125 737.25 1098 630.448 C 1115.719 591.328 1114.031 585.703 1115 570 C 1106.5 535.75 1116.5 518.75 1134 533 C 1138.313 536.5 1130.063 589.313 1153 644 C 1071 780.5 849.5 734.5 840 581.323 C 838.453 414.255 1074 332 1168 547 Z " fill="rgb(94,115,154)"/></g></g></svg>
